<?xml version="1.0" encoding="utf-8"?>
<!-- Generator: Adobe Illustrator 19.2.1, SVG Export Plug-In . SVG Version: 6.00 Build 0)  -->
<svg version="1.1" id="layer" xmlns="http://www.w3.org/2000/svg" xmlns:xlink="http://www.w3.org/1999/xlink" x="0px" y="0px"
	 viewBox="0 0 652 652" style="enable-background:new 0 0 652 652;" xml:space="preserve">
<style type="text/css">
	.st0{fill:#FFFFFF;}
	.st1{fill:#F58022;}
	.st2{fill:#0865B1;}
</style>
<path d="M45.7,376.7c-0.4-2.1-0.9-3.3-1.4-4c-0.8-1-1.4-1.3-4.7-1.3h-3.2v21.6c0,3.5,0.4,3.9,4.7,4.2v1.5H28.1v-1.5
	c4.2-0.3,4.5-0.6,4.5-4.2v-21.6h-2.9c-3.5,0-4.4,0.4-5,1.3c-0.6,0.8-0.9,2.1-1.5,4.1h-1.5c0.2-2.8,0.4-5.7,0.5-8.2h1
	c0.7,1,1.2,1.1,2.5,1.1h17.6c1.2,0,1.6-0.3,2.3-1.1h1.1c0,2.1,0.2,5.4,0.4,8L45.7,376.7z M82.5,369.8H70.6v1.5
	c3.6,0.3,3.9,0.5,3.9,4.1v7H59.3v-7c0-3.7,0.4-3.9,3.9-4.1v-1.5H51.3v1.5c3.8,0.3,4.1,0.4,4.1,4.1v17.7c0,3.7-0.4,3.9-4,4.1v1.5h12
	v-1.5c-3.7-0.3-4.1-0.5-4.1-4.1v-8.7h15.2v8.7c0,3.7-0.4,3.9-4.3,4.1v1.5h12.2v-1.5c-3.7-0.3-4.1-0.4-4.1-4.1v-17.7
	c0-3.7,0.4-3.9,4.1-4.1V369.8z M108.6,391.4c-0.6,1.8-1.5,3.3-2.2,4.2c-1,1.2-2.4,1.5-5.6,1.5c-2.2,0-3.8,0-4.7-0.6
	c-0.8-0.5-1.1-1.5-1.1-3.6v-8.2h4.2c3.9,0,4.2,0.2,4.8,3.4h1.5v-8.7H104c-0.6,3-0.8,3.3-4.8,3.3H95v-9.9c0-1.3,0.1-1.4,1.5-1.4h3.6
	c3.1,0,4.3,0.3,4.9,1.2c0.6,1,1,2,1.4,3.8l1.5-0.2c-0.2-2.5-0.4-5.6-0.4-6.6H87.2v1.4c3.5,0.3,3.9,0.4,3.9,4.4V393
	c0,3.6-0.4,4-4.5,4.3v1.4h21.9c0.4-1.3,1.3-5.7,1.6-7.2L108.6,391.4z M156.5,369.8h-11v1.5c3.2,0.2,4.2,0.8,4.5,2.4
	c0.2,1.4,0.3,3.2,0.3,7.4v3.2c0,7.7-2.3,12.6-8.4,12.6c-5.2,0-8.4-3.6-8.4-11.2v-10c0-3.9,0.4-4.1,3.9-4.4v-1.5h-11.8v1.5
	c3.6,0.3,4,0.5,4,4.4v10.9c0,5.3,1.3,8.6,3.9,10.7c2.1,1.5,4.6,2.1,7.3,2.1c2.9,0,6-0.9,8.1-3.1c2.6-2.7,3.4-6.5,3.4-11.9V381
	c0-4.2,0.1-6.1,0.3-7.3c0.2-1.7,1.3-2.3,3.9-2.5V369.8z M191.1,369.7h-11v1.4c3.1,0.2,4.2,0.7,4.5,2.7c0.1,1.2,0.3,3.3,0.3,7.5v10.6
	h-0.1l-18.5-22.1h-6.7v1.4c2.1,0.2,3.1,0.5,4,1.6c0.8,1.1,0.9,1.2,0.9,4.4v9.7c0,4-0.1,6.1-0.3,7.6c-0.2,2.1-1.4,2.7-4,2.8v1.5h10.9
	v-1.5c-3.1-0.2-4.1-0.7-4.4-2.9c-0.1-1.3-0.3-3.4-0.3-7.4v-10.9h0.1l18.9,23.2h1.6v-17.8c0-4.2,0.1-6.2,0.3-7.6
	c0.2-1.8,1.3-2.4,3.9-2.5V369.7z M207,398.7v-1.5c-3.7-0.3-4.1-0.4-4.1-4.2v-17.5c0-3.8,0.4-4,4.1-4.3v-1.5h-12v1.5
	c3.7,0.3,4.1,0.5,4.1,4.3V393c0,3.7-0.4,4-4.1,4.2v1.5H207z M241,369.8h-10.2v1.5c3.7,0.4,3.9,0.8,3,3.3c-1.2,3.8-4.6,12.4-7,18.4
	h-0.1c-2.9-7.4-6.2-16-7.4-19.2c-0.7-1.9-0.6-2.2,2.6-2.5v-1.5h-11.1v1.5c2.7,0.3,3.4,0.6,4.7,3.8c2.4,6.1,6.3,16,9.3,24.1h1.6
	c3.4-9.1,8.1-20.4,9.3-23.2c1.7-4,2.3-4.4,5.3-4.7V369.8z M266.2,391.4c-0.6,1.8-1.5,3.3-2.2,4.2c-1,1.2-2.4,1.5-5.6,1.5
	c-2.2,0-3.8,0-4.7-0.6c-0.8-0.5-1.1-1.5-1.1-3.6v-8.2h4.2c3.9,0,4.2,0.2,4.8,3.4h1.5v-8.7h-1.5c-0.6,3-0.8,3.3-4.8,3.3h-4.2v-9.9
	c0-1.3,0.1-1.4,1.5-1.4h3.6c3.1,0,4.3,0.3,4.9,1.2c0.6,1,1,2,1.4,3.8l1.5-0.2c-0.2-2.5-0.4-5.6-0.4-6.6h-20.2v1.4
	c3.5,0.3,3.9,0.4,3.9,4.4V393c0,3.6-0.4,4-4.5,4.3v1.4h21.9c0.4-1.3,1.3-5.7,1.6-7.2L266.2,391.4z M298.4,397.8
	c-1-0.3-2.1-0.8-3.3-2.1c-1.1-1.2-1.9-2.2-3.6-4.6c-1.3-2-3.2-5-4-6.4c3.3-1.4,5.7-3.8,5.7-7.6c0-2.7-1.2-4.7-3-5.8
	c-1.7-1.1-3.9-1.5-7.1-1.5h-11.3v1.5c3.5,0.3,3.9,0.4,3.9,4.2V393c0,3.8-0.4,4-4.1,4.3v1.5h11.9v-1.5c-3.6-0.3-4-0.5-4-4.3v-6.8h1.5
	c2.4,0,3.1,0.5,3.9,1.7c1.3,2.1,2.9,4.9,4.5,7.1c2.1,2.9,4,3.9,7.2,4.1c0.6,0,1.1,0,1.7,0L298.4,397.8z M279.5,384.5v-10.7
	c0-1.2,0.1-1.7,0.5-2c0.4-0.3,1.1-0.4,2.4-0.4c3.3,0,6.6,1.7,6.6,6.4c0,2.4-0.7,4.1-2.5,5.4c-1.1,0.9-2.6,1.3-4.9,1.3H279.5z
	 M317.7,376.4c-0.4-2.9-0.6-4.7-0.8-6.2c-1.9-0.6-3.8-1.1-5.7-1.1c-5.8,0-9.3,3.7-9.3,8c0,5,4.4,7.2,7.4,8.7
	c3.3,1.7,5.8,3.3,5.8,6.6c0,3.2-2,5.2-5.3,5.2c-4.5,0-6.5-4.5-7.2-7.2l-1.5,0.4c0.3,2.4,0.9,6,1.3,7c0.4,0.2,1.1,0.5,2.2,0.9
	s2.6,0.7,4.4,0.7c6,0,10-3.7,10-8.5c0-5-4.3-7.1-7.8-8.9c-3.5-1.7-5.7-3.3-5.7-6.5c0-2.3,1.5-4.8,4.9-4.8c3.9,0,5,3.1,5.8,5.9
	L317.7,376.4z M335.1,398.7v-1.5c-3.7-0.3-4.1-0.4-4.1-4.2v-17.5c0-3.8,0.4-4,4.1-4.3v-1.5h-12v1.5c3.7,0.3,4.1,0.5,4.1,4.3V393
	c0,3.7-0.4,4-4.1,4.2v1.5H335.1z M364.8,376.6c-0.2-2.6-0.4-5.9-0.4-8h-1.1c-0.7,0.8-1,1.1-2.3,1.1h-17.6c-1.3,0-1.8-0.1-2.5-1.1h-1
	c-0.1,2.5-0.3,5.4-0.5,8.2h1.5c0.5-2,0.9-3.3,1.5-4.1c0.6-0.9,1.5-1.3,4.9-1.3h2.9v21.6c0,3.6-0.4,3.9-4.5,4.2v1.5h13.1v-1.5
	c-4.3-0.3-4.7-0.7-4.7-4.2v-21.6h3.2c3.3,0,3.9,0.3,4.7,1.3c0.5,0.7,1,1.8,1.4,4L364.8,376.6z M396.4,369.8h-10.2v1.5
	c3.5,0.4,3.6,0.7,2.6,2.9c-1.2,2.7-3.6,6.8-5.2,9.8c-2-3.3-4.1-6.8-5.9-10.2c-0.8-1.6-1-2.1,2.2-2.5v-1.5h-10.9v1.5
	c2.7,0.3,3.3,0.8,5,3.7c2.4,4,4,6.8,5.7,9.7c0.8,1.3,0.9,1.7,0.9,2.6v5.8c0,3.7-0.4,4-4.4,4.2v1.4h12.9v-1.4
	c-4.2-0.3-4.6-0.6-4.6-4.2v-5.9c0-1.2,0.1-1.6,0.7-2.7c2.2-3.9,3.7-6.4,5.6-9.5c1.8-2.9,2.4-3.4,5.5-3.7V369.8z M427.4,369.1
	c-9.4,0-15.1,7.4-15.1,15.5c0,8.6,6.6,14.8,14.6,14.8c8.2,0,15.1-5.8,15.1-15.5C441.9,374.9,435,369.1,427.4,369.1L427.4,369.1z
	 M426.4,370.9c5.8,0,10.8,4.8,10.8,14.2c0,8.5-4.5,12.5-9.4,12.5c-6.2,0-10.9-6.1-10.9-14.3C416.9,375,421.5,370.9,426.4,370.9
	L426.4,370.9z M467.1,376.4c-0.2-2.2-0.4-5-0.5-6.7h-20v1.4c3.5,0.3,3.9,0.5,3.9,4.3V393c0,3.8-0.4,4-4,4.3v1.5h12.4v-1.5
	c-4.1-0.3-4.5-0.5-4.5-4.3v-7.8h4.5c4.1,0,4.2,0.4,4.8,3.6h1.5v-8.8h-1.5c-0.6,2.9-0.8,3.3-4.8,3.3h-4.5v-10.3
	c0-1.3,0.1-1.4,1.5-1.4h3.6c3.2,0,4.1,0.4,4.9,1.5c0.6,0.9,0.8,1.8,1.2,3.7L467.1,376.4z M508.5,376.6c-0.2-2.6-0.4-5.9-0.4-8H507
	c-0.7,0.8-1,1.1-2.3,1.1h-17.6c-1.3,0-1.8-0.1-2.5-1.1h-1c-0.1,2.5-0.3,5.4-0.5,8.2h1.5c0.5-2,0.9-3.3,1.5-4.1
	c0.6-0.9,1.5-1.3,4.9-1.3h2.9v21.6c0,3.6-0.4,3.9-4.5,4.2v1.5h13.1v-1.5c-4.3-0.3-4.7-0.7-4.7-4.2v-21.6h3.2c3.3,0,3.9,0.3,4.7,1.3
	c0.5,0.7,1,1.8,1.4,4L508.5,376.6z M534.1,391.4c-0.6,1.8-1.5,3.3-2.2,4.2c-1,1.2-2.4,1.5-5.6,1.5c-2.2,0-3.8,0-4.7-0.6
	c-0.8-0.5-1.1-1.5-1.1-3.6v-8.2h4.2c3.9,0,4.2,0.2,4.8,3.4h1.5v-8.7h-1.5c-0.6,3-0.8,3.3-4.8,3.3h-4.2v-9.9c0-1.3,0.1-1.4,1.5-1.4
	h3.6c3.1,0,4.3,0.3,4.9,1.2c0.6,1,1,2,1.4,3.8l1.5-0.2c-0.2-2.5-0.4-5.6-0.4-6.6h-20.2v1.4c3.5,0.3,3.9,0.4,3.9,4.4V393
	c0,3.6-0.4,4-4.5,4.3v1.4h21.9c0.4-1.3,1.3-5.7,1.6-7.2L534.1,391.4z M567.4,398.7v-1.5c-3.1-0.3-4.3-1-6.3-4.1
	c-2.1-3.2-4.5-6.9-7-10.8c3.1-4.6,4.5-6.6,5.4-7.7c2-2.6,3-3.1,6.3-3.4v-1.5h-10.3v1.5c2.8,0.3,3,0.8,2,2.7c-1.2,2.2-2.6,4.4-4.3,7
	c-1.9-2.9-3.6-5.4-5-7.8c-0.7-1.2-0.6-1.6,2.1-1.9v-1.5H539v1.5c3.3,0.3,4,0.8,5.9,3.8c1.5,2.3,3.5,5.5,5.8,9.2
	c-3.8,5.8-6.2,9.2-7.3,10.5c-1.2,1.6-2.7,2.2-5.3,2.5v1.5h10.4v-1.5c-2.9-0.3-3.1-0.8-2.1-2.6c1.5-2.6,3.3-5.7,5.3-8.7
	c2.8,4.4,4.7,7.5,5.8,9.2c0.8,1.4,0.6,1.8-2.1,2.1v1.5H567.4z M600.1,398.7v-1.5c-2.9-0.3-3.6-0.7-4.9-4.5
	c-2.8-7.5-5.8-16.1-8.6-23.7l-1.6,0.4l-9.2,23.1c-1.6,4-2.2,4.2-5.1,4.6v1.5h10v-1.5c-3.4-0.4-3.7-0.8-2.8-3.5
	c0.6-1.8,1.2-3.6,1.8-5.3h9.7c0.9,2.4,1.7,4.7,2.3,6.5c0.5,1.7,0.2,2.1-2.7,2.4v1.5H600.1z M588.7,386.3h-8.2
	c1.3-3.7,2.7-7.5,4.1-11.3h0.1L588.7,386.3z M620.5,376.4c-0.4-2.9-0.6-4.7-0.8-6.2c-1.9-0.6-3.8-1.1-5.7-1.1c-5.8,0-9.3,3.7-9.3,8
	c0,5,4.4,7.2,7.4,8.7c3.3,1.7,5.8,3.3,5.8,6.6c0,3.2-2,5.2-5.3,5.2c-4.5,0-6.5-4.5-7.2-7.2l-1.5,0.4c0.3,2.4,0.9,6,1.3,7
	c0.4,0.2,1.1,0.5,2.2,0.9s2.6,0.7,4.4,0.7c6,0,10-3.7,10-8.5c0-5-4.3-7.1-7.8-8.9c-3.5-1.7-5.7-3.3-5.7-6.5c0-2.3,1.5-4.8,4.9-4.8
	c3.9,0,5,3.1,5.8,5.9L620.5,376.4z M182.6,448.4v-1.5c-2.9-0.3-3.6-0.7-4.9-4.5c-2.8-7.5-5.8-16.1-8.6-23.7l-1.6,0.4l-9.2,23.1
	c-1.6,4-2.2,4.2-5.1,4.6v1.5h10v-1.5c-3.4-0.4-3.7-0.8-2.8-3.5c0.6-1.8,1.2-3.6,1.8-5.3h9.7c0.9,2.5,1.7,4.7,2.3,6.5
	c0.5,1.7,0.2,2.1-2.7,2.4v1.5H182.6z M171.1,436H163c1.3-3.7,2.7-7.5,4.1-11.3h0.1L171.1,436z M208.4,426.3c-0.2-2.6-0.4-5.9-0.4-8
	h-1.1c-0.7,0.8-1,1.1-2.3,1.1H187c-1.3,0-1.8-0.1-2.5-1.1h-1c-0.1,2.5-0.3,5.4-0.5,8.2h1.5c0.5-2,0.9-3.3,1.5-4.1
	c0.6-0.9,1.5-1.3,5-1.3h2.9v21.6c0,3.6-0.4,3.9-4.5,4.2v1.5h13.1v-1.5c-4.3-0.3-4.7-0.7-4.7-4.2v-21.6h3.2c3.3,0,3.9,0.3,4.7,1.3
	c0.5,0.7,1,1.8,1.4,4L208.4,426.3z M253,448.4v-1.5c-2.9-0.3-3.6-0.7-4.9-4.5c-2.8-7.5-5.8-16.1-8.6-23.7l-1.6,0.4l-9.2,23.1
	c-1.6,4-2.2,4.2-5.1,4.6v1.5h10v-1.5c-3.4-0.4-3.7-0.8-2.8-3.5c0.6-1.8,1.2-3.6,1.8-5.3h9.7c0.9,2.5,1.7,4.7,2.3,6.5
	c0.5,1.7,0.2,2.1-2.7,2.4v1.5H253z M241.6,436h-8.2c1.3-3.7,2.7-7.5,4.1-11.3h0.1L241.6,436z M283.5,447.4c-1-0.3-2.1-0.8-3.3-2.1
	c-1.1-1.2-1.9-2.2-3.6-4.6c-1.3-2-3.2-5-4-6.4c3.3-1.4,5.7-3.8,5.7-7.6c0-2.7-1.2-4.7-3-5.8c-1.7-1.1-3.9-1.5-7.1-1.5H257v1.5
	c3.5,0.3,3.9,0.4,3.9,4.2v17.6c0,3.8-0.4,4-4.1,4.3v1.5h11.9v-1.5c-3.6-0.3-4-0.5-4-4.3v-6.8h1.5c2.4,0,3.1,0.5,3.9,1.7
	c1.3,2.1,2.9,4.9,4.5,7.1c2.1,2.9,4,3.9,7.2,4.1c0.6,0,1.1,0,1.7,0L283.5,447.4z M264.7,434.2v-10.7c0-1.2,0.1-1.7,0.5-2
	c0.4-0.3,1.1-0.4,2.4-0.4c3.3,0,6.6,1.7,6.6,6.4c0,2.4-0.7,4.1-2.5,5.4c-1.1,0.9-2.6,1.3-4.9,1.3H264.7z M306.5,441
	c-0.7,2.1-1.5,3.5-2.3,4.4c-1,1.1-2.5,1.3-4.9,1.3c-1.8,0-3.4-0.1-4.3-0.6c-0.8-0.4-1.1-1.3-1.1-3.7v-17.3c0-3.8,0.4-4,4.1-4.2v-1.5
	h-11.9v1.5c3.7,0.3,4,0.5,4,4.2v17.5c0,3.7-0.4,4-4.1,4.3v1.5h20.5c0.4-1.3,1.4-5.7,1.6-7.1L306.5,441z M323.6,448.4v-1.5
	c-3.7-0.3-4.1-0.4-4.1-4.2v-17.5c0-3.8,0.4-4,4.1-4.3v-1.5h-12v1.5c3.7,0.3,4.1,0.5,4.1,4.3v17.5c0,3.7-0.4,4-4.1,4.2v1.5H323.6z
	 M359.1,419.4h-11v1.4c3.1,0.2,4.2,0.7,4.5,2.7c0.1,1.2,0.3,3.3,0.3,7.5v10.6h-0.1l-18.5-22.1h-6.7v1.4c2.1,0.2,3.1,0.5,4,1.6
	c0.8,1.1,0.9,1.2,0.9,4.4v9.7c0,4-0.1,6.1-0.3,7.6c-0.2,2.1-1.4,2.7-4,2.8v1.5H339v-1.5c-3.1-0.2-4.1-0.7-4.4-2.9
	c-0.1-1.3-0.3-3.4-0.3-7.4v-10.9h0.1l18.9,23.2h1.6V431c0-4.2,0.1-6.2,0.3-7.6c0.2-1.8,1.3-2.4,3.9-2.5V419.4z M392.2,434.8h-11.5
	v1.5c4.5,0.4,4.8,0.6,4.8,3.8v3.5c0,1.9-0.5,2.4-1.4,2.9c-1,0.5-2.4,0.8-3.9,0.8c-8.6,0-12.4-7.4-12.4-13.8c0-8.2,5-13.1,11.8-13.1
	c4.1,0,7.5,1.4,8.6,7l1.5-0.3c-0.4-3-0.6-5.6-0.7-7.1c-1.5-0.3-5-1.3-8.8-1.3c-8.7,0-17.1,4.9-17.1,15.3c0,8.8,6.5,15,16.4,15
	c3.5,0,7.3-1,10.1-1.6c-0.3-1.2-0.3-2.7-0.3-4.2v-3.8c0-2.6,0.2-2.8,2.9-3.2V434.8z M421.2,426.3c-0.2-2.6-0.4-5.9-0.4-8h-1.1
	c-0.7,0.8-1,1.1-2.3,1.1h-17.6c-1.3,0-1.8-0.1-2.5-1.1h-1c-0.1,2.5-0.3,5.4-0.5,8.2h1.5c0.5-2,0.9-3.3,1.5-4.1
	c0.6-0.9,1.5-1.3,4.9-1.3h2.9v21.6c0,3.6-0.4,3.9-4.5,4.2v1.5h13.1v-1.5c-4.3-0.3-4.7-0.7-4.7-4.2v-21.6h3.2c3.3,0,3.9,0.3,4.7,1.3
	c0.5,0.7,1,1.8,1.4,4L421.2,426.3z M440.5,418.7c-9.5,0-15.1,7.4-15.1,15.5c0,8.6,6.5,14.8,14.6,14.8c8.2,0,15.1-5.8,15.1-15.5
	C455,424.6,448.1,418.7,440.5,418.7L440.5,418.7z M439.5,420.5c5.7,0,10.8,4.8,10.8,14.2c0,8.5-4.5,12.5-9.4,12.5
	c-6.2,0-10.9-6.1-10.9-14.3C430,424.7,434.6,420.5,439.5,420.5L439.5,420.5z M490.4,419.4h-11v1.4c3.1,0.2,4.2,0.7,4.5,2.7
	c0.1,1.2,0.3,3.3,0.3,7.5v10.6H484l-18.5-22.1h-6.7v1.4c2,0.2,3.1,0.5,4,1.6c0.8,1.1,0.9,1.2,0.9,4.4v9.7c0,4-0.1,6.1-0.3,7.6
	c-0.2,2.1-1.4,2.7-4,2.8v1.5h10.9v-1.5c-3.1-0.2-4.1-0.7-4.4-2.9c-0.1-1.3-0.3-3.4-0.3-7.4v-10.9h0.1l18.9,23.2h1.6V431
	c0-4.2,0.1-6.2,0.3-7.6c0.2-1.8,1.3-2.4,3.9-2.5V419.4z"/>
<path class="st0" d="M467.5,272.3l-35.4,11.7l8.2-10.9L467.5,272.3z M431.9,246.6l0.1,37.3l-7.9-11.2L431.9,246.6z M396.6,272.5
	l35.5,11.4l-13.1,4L396.6,272.5z M431.8,297.6l-21.6,16.6l21.8-30.2L431.8,297.6z M454.1,314l-22-30.1l12.9,4.4L454.1,314z"/>
<path class="st1" d="M470.2,271.5h-29.1l-9-27.7l-9,27.7h-29.2l23.6,17.1l-9,27.7l23.6-17.1l23.6,17.1l-9-27.7L470.2,271.5z
	 M467.5,272.3l-35.4,11.7l8.2-10.9L467.5,272.3z M431.9,246.6l0.1,37.3l-7.9-11.2L431.9,246.6z M396.6,272.5l35.5,11.4l-13.1,4
	L396.6,272.5z M431.8,297.6l-21.6,16.6l21.8-30.2L431.8,297.6z M454.1,314l-22-30.1l12.9,4.4L454.1,314z"/>
<path class="st2" d="M348.9,339.2h45.1l15.9-47.8l-31.4-24L348.9,339.2z M485.6,267.4l-31.4,24l15.8,47.8h45.3L485.6,267.4z
	 M454.6,192h-44.9l-30.5,73.7h39.2l13.6-41l13.6,41H485L454.6,192z M255.1,281.8c0,39.6-25.7,57.4-63.4,57.4
	c-37.7,0-63.4-17.8-63.4-57.4V192h39.2v83.3c0,19.1,4.5,24.6,24.2,24.6s24.2-5.5,24.2-24.6V192h39.2V281.8z M300.5,231.2h-36.3V192
	H376v39.1h-36.3v108h-39.2V231.2z"/>
</svg>
