<?xml version="1.0" encoding="utf-8"?>
<!-- Generator: Adobe Illustrator 19.2.1, SVG Export Plug-In . SVG Version: 6.00 Build 0)  -->
<svg version="1.1" id="layer" xmlns="http://www.w3.org/2000/svg" xmlns:xlink="http://www.w3.org/1999/xlink" x="0px" y="0px"
	 viewBox="0 0 652 652" style="enable-background:new 0 0 652 652;" xml:space="preserve">
<polygon points="21.1,216.2 25,216.2 25,244.8 66.5,244.8 66.5,216.2 70.5,216.2 70.5,281.5 66.5,281.5 66.5,248.3 25,248.3 
	25,281.5 21.1,281.5 "/>
<path d="M159.4,248.8c0-20.2,15-33.9,33.5-33.9c18.5,0,33.4,13.7,33.4,33.9c0,20.2-15,33.9-33.4,33.9
	C174.4,282.7,159.4,269,159.4,248.8 M222.4,248.8c0-17.4-12.6-30.4-29.5-30.4c-16.9,0-29.6,13-29.6,30.4c0,17.4,12.6,30.4,29.6,30.4
	C209.7,279.2,222.4,266.2,222.4,248.8"/>
<path d="M307.8,259.5V217h3.9v42.2c0,12.4,7,19.6,19.6,19.6c12.6,0,19.7-7.2,19.7-19.6V217h3.9v42.5c0,14.5-9,22.9-23.7,22.9
	C316.6,282.4,307.8,274.1,307.8,259.5"/>
<path d="M446.9,268.5l3.5-1.7c3.2,5.7,7.4,11.5,18.2,11.5c9.6,0,15.7-5.6,15.7-13.7c0-7.4-3.7-10.5-13.1-14.6l-6.2-2.8
	c-8.8-3.9-13.9-7.8-13.9-16.3c0-9.9,7.9-15.4,17-15.4c9.4,0,14.3,5.1,17.4,9.9l-3.1,2c-2.8-4.3-7-8.5-14.3-8.5
	c-7.9,0-13.1,4.2-13.1,11.7c0,6.7,3.9,9.5,11.6,12.9l6.2,2.8c10.9,4.7,15.5,9.3,15.5,18.1c0,10-7.9,17.2-19.6,17.2
	C455.9,281.8,450.2,274.9,446.9,268.5"/>
<polygon points="588.7,216.7 624.1,216.7 624.1,220.1 592.7,220.1 592.7,246.2 623.5,246.2 623.5,249.6 592.7,249.6 592.7,277.7 
	625.4,277.7 625.4,281.1 588.7,281.1 "/>
<path d="M170.5,502.7h0.7l27.5,66.7h-4.2l-8.6-20.9h-30.2l-8.5,20.9h-4.1L170.5,502.7z M184.5,545.1l-11.8-29
	c-0.9-2.3-1.9-4.7-1.9-4.7s-0.9,2.4-1.8,4.7l-11.9,29L184.5,545.1z"/>
<polygon points="606.4,507.6 584.4,507.6 584.4,504.2 632.3,504.2 632.3,507.6 610.3,507.6 610.3,569.4 606.4,569.4 "/>
<polygon points="386.6,534.8 418.2,504.2 412.6,504.2 381.5,534.6 381.5,504.2 377.6,504.2 377.6,569.4 381.5,569.4 381.5,535.4 
	415.3,569.4 421,569.4 "/>
<path d="M303.9,569.4l-23-30.9c10.3-1.1,18-6,18-17c0-13-10.5-17.4-22.9-17.4h-12.8v65.3h3.9v-30.7h8.9c0.1,0,0.3,0,0.4,0l22.8,30.7
	H303.9z M267.2,507.6h9.1c10.5,0,18.7,3.3,18.7,13.9c0,10.5-8.2,13.8-18.7,13.8h-9.1V507.6z"/>
<polygon points="69.9,514.8 69.7,514.8 46.2,571.6 22.8,514.8 22.7,514.8 10.8,569.4 6.8,569.4 21.5,502.1 46.2,562.2 71,502.1 
	85.8,569.4 81.8,569.4 "/>
<polygon points="488.6,504.2 524,504.2 524,507.6 492.5,507.6 492.5,534 523.4,534 523.4,537.4 492.5,537.4 492.5,566 525.3,566 
	525.3,569.4 488.6,569.4 "/>
<polygon points="166.2,72.2 179.6,72.2 179.6,95.8 207.6,95.8 207.6,72.2 221,72.2 221,137.5 207.6,137.5 207.6,107.8 179.6,107.8 
	179.6,137.5 166.2,137.5 "/>
<rect x="324.8" y="72.2" width="13.4" height="65.3"/>
<polygon points="586.6,72.2 625.3,72.2 625.3,84 600.1,84 600.1,97.6 624.8,97.6 624.8,109.1 600.1,109.1 600.1,125.6 626.7,125.6 
	626.7,137.5 586.6,137.5 "/>
<path d="M1.5,72.2h13.9L24.7,99c1.7,4.5,3.7,11.8,3.7,11.8s2.1-8,4.2-12.4l12.6-26.8h1.3l12.7,26.8c2.1,4.4,4.3,12.4,4.3,12.4
	s2.1-7.3,3.7-11.8l9.3-26.8h12.7L65.6,138h-1.3l-14.7-31.5c-1.7-3.7-3.7-9.7-3.7-9.7s-2,6-3.7,9.7L26.9,138h-1.3L1.5,72.2z"/>
<polygon points="173,360.2 186.7,360.2 186.7,413.3 213.9,413.3 213.9,425.4 173,425.4 "/>
<path d="M58,390.3c5-2.1,9.2-6.7,9.2-13.5c0-9.7-6.6-16.6-19.4-16.6H24.4v65.3h25.3c13.4,0,21.2-8.3,21.2-18.9
	C70.9,397.6,65.7,392.4,58,390.3 M37.9,371.6h7.8c5.3,0,7.7,2.6,7.7,6.8c0,4.2-2.6,7.5-8.6,7.5h-6.9V371.6z M47.8,414.1h-10v-17.4
	h9.2c5.9,0,9.7,3.4,9.7,8.6C56.8,410.7,53.3,414.1,47.8,414.1"/>
<polygon points="608.8,390.5 637.4,360.2 621.1,360.2 597.2,386.2 597.2,360.2 584,360.2 584,425.4 597.2,425.4 597.2,395.7 
	622.3,425.4 639.5,425.4 "/>
<path d="M474.7,427.1c-19.8,0-33.7-13.9-33.7-34.4c0-20.2,14.2-34.4,33.7-34.4c10.8,0,18.9,3.4,25.7,10.7l-9.2,8.5
	c-4.5-4.8-10-7.3-16.5-7.3c-12.3,0-20.5,9.2-20.5,22.4c0,13.2,8.2,22.4,20.5,22.4c6.5,0,12.4-2.3,16.7-7l9,8.3
	C493.8,423.5,485.5,427.1,474.7,427.1"/>
<path d="M351.3,425.4h14.9l-33.3-69h-1.6l-32.2,69h13.7l6.3-14h25.9L351.3,425.4z M323.8,400.8l2.2-4.9c2.2-5,5.6-14.1,5.6-14.1h0.4
	c0,0,3.5,9.1,5.7,14.1l2.3,4.9H323.8z"/>
<polygon points="459.8,84 442.3,84 442.3,72.2 490.8,72.2 490.8,84 473.2,84 473.2,137.5 459.8,137.5 "/>
</svg>
